<mxfile host="app.diagrams.net" modified="2022-05-01T10:47:11.047Z" agent="5.0 (Windows NT 10.0; Win64; x64) AppleWebKit/537.36 (KHTML, like Gecko) Chrome/100.0.4896.127 Safari/537.36" etag="3vJD6FHtFw4okNoLQJOC" version="17.5.0" type="github">
  <diagram name="Page-1" id="e7e014a7-5840-1c2e-5031-d8a46d1fe8dd">
    <mxGraphModel dx="1038" dy="489" grid="1" gridSize="10" guides="1" tooltips="1" connect="1" arrows="1" fold="1" page="1" pageScale="1" pageWidth="1169" pageHeight="826" background="none" math="0" shadow="0">
      <root>
        <mxCell id="0" />
        <mxCell id="1" parent="0" />
        <mxCell id="Of8QYfmjTecz0_pd859t-41" value="" style="ellipse;html=1;shape=startState;fillColor=#000000;strokeColor=#ff0000;" vertex="1" parent="1">
          <mxGeometry x="450" y="40" width="30" height="30" as="geometry" />
        </mxCell>
        <mxCell id="Of8QYfmjTecz0_pd859t-42" value="" style="edgeStyle=orthogonalEdgeStyle;html=1;verticalAlign=bottom;endArrow=open;endSize=8;strokeColor=#ff0000;rounded=0;" edge="1" source="Of8QYfmjTecz0_pd859t-41" parent="1">
          <mxGeometry relative="1" as="geometry">
            <mxPoint x="465" y="110" as="targetPoint" />
          </mxGeometry>
        </mxCell>
        <mxCell id="Of8QYfmjTecz0_pd859t-46" value="Login Name &amp;amp; Password" style="rounded=1;whiteSpace=wrap;html=1;arcSize=40;fontColor=#000000;fillColor=#ffffc0;strokeColor=#ff0000;" vertex="1" parent="1">
          <mxGeometry x="410" y="120" width="120" height="40" as="geometry" />
        </mxCell>
        <mxCell id="Of8QYfmjTecz0_pd859t-47" value="" style="edgeStyle=orthogonalEdgeStyle;html=1;verticalAlign=bottom;endArrow=open;endSize=8;strokeColor=#ff0000;rounded=0;" edge="1" source="Of8QYfmjTecz0_pd859t-46" parent="1">
          <mxGeometry relative="1" as="geometry">
            <mxPoint x="470" y="220" as="targetPoint" />
          </mxGeometry>
        </mxCell>
        <mxCell id="Of8QYfmjTecz0_pd859t-48" value="Correct Login" style="rhombus;whiteSpace=wrap;html=1;fillColor=#ffffc0;strokeColor=#ff0000;" vertex="1" parent="1">
          <mxGeometry x="430" y="230" width="80" height="60" as="geometry" />
        </mxCell>
        <mxCell id="Of8QYfmjTecz0_pd859t-49" value="no" style="edgeStyle=orthogonalEdgeStyle;html=1;align=left;verticalAlign=bottom;endArrow=open;endSize=8;strokeColor=#ff0000;rounded=0;" edge="1" source="Of8QYfmjTecz0_pd859t-48" parent="1">
          <mxGeometry x="-1" relative="1" as="geometry">
            <mxPoint x="600" y="260" as="targetPoint" />
          </mxGeometry>
        </mxCell>
        <mxCell id="Of8QYfmjTecz0_pd859t-50" value="yes" style="edgeStyle=orthogonalEdgeStyle;html=1;align=left;verticalAlign=top;endArrow=open;endSize=8;strokeColor=#ff0000;rounded=0;" edge="1" source="Of8QYfmjTecz0_pd859t-48" parent="1">
          <mxGeometry x="-1" relative="1" as="geometry">
            <mxPoint x="470" y="330" as="targetPoint" />
          </mxGeometry>
        </mxCell>
        <mxCell id="Of8QYfmjTecz0_pd859t-51" value="Invalid Password" style="rounded=1;whiteSpace=wrap;html=1;arcSize=40;fontColor=#000000;fillColor=#ffffc0;strokeColor=#ff0000;" vertex="1" parent="1">
          <mxGeometry x="610" y="240" width="120" height="40" as="geometry" />
        </mxCell>
        <mxCell id="Of8QYfmjTecz0_pd859t-55" value="" style="edgeStyle=orthogonalEdgeStyle;html=1;verticalAlign=bottom;endArrow=open;endSize=8;strokeColor=#ff0000;rounded=0;exitX=1;exitY=0.5;exitDx=0;exitDy=0;" edge="1" source="Of8QYfmjTecz0_pd859t-51" parent="1">
          <mxGeometry relative="1" as="geometry">
            <mxPoint x="540" y="140" as="targetPoint" />
            <mxPoint x="720" y="340" as="sourcePoint" />
            <Array as="points">
              <mxPoint x="770" y="260" />
              <mxPoint x="770" y="140" />
            </Array>
          </mxGeometry>
        </mxCell>
        <mxCell id="Of8QYfmjTecz0_pd859t-56" value="Database" style="rounded=1;whiteSpace=wrap;html=1;arcSize=40;fontColor=#000000;fillColor=#ffffc0;strokeColor=#ff0000;" vertex="1" parent="1">
          <mxGeometry x="410" y="340" width="120" height="40" as="geometry" />
        </mxCell>
        <mxCell id="Of8QYfmjTecz0_pd859t-57" value="" style="edgeStyle=orthogonalEdgeStyle;html=1;verticalAlign=bottom;endArrow=open;endSize=8;strokeColor=#ff0000;rounded=0;" edge="1" source="Of8QYfmjTecz0_pd859t-56" parent="1">
          <mxGeometry relative="1" as="geometry">
            <mxPoint x="470" y="420" as="targetPoint" />
          </mxGeometry>
        </mxCell>
        <mxCell id="Of8QYfmjTecz0_pd859t-58" value="" style="shape=line;html=1;strokeWidth=6;strokeColor=#ff0000;" vertex="1" parent="1">
          <mxGeometry x="350" y="430" width="250" height="10" as="geometry" />
        </mxCell>
        <mxCell id="Of8QYfmjTecz0_pd859t-60" value="" style="edgeStyle=orthogonalEdgeStyle;html=1;verticalAlign=bottom;endArrow=open;endSize=8;strokeColor=#ff0000;rounded=0;exitX=0.152;exitY=0.74;exitDx=0;exitDy=0;exitPerimeter=0;" edge="1" parent="1" source="Of8QYfmjTecz0_pd859t-58">
          <mxGeometry relative="1" as="geometry">
            <mxPoint x="390" y="480" as="targetPoint" />
            <mxPoint x="520" y="460" as="sourcePoint" />
            <Array as="points">
              <mxPoint x="390" y="437" />
            </Array>
          </mxGeometry>
        </mxCell>
        <mxCell id="Of8QYfmjTecz0_pd859t-61" value="" style="edgeStyle=orthogonalEdgeStyle;html=1;verticalAlign=bottom;endArrow=open;endSize=8;strokeColor=#ff0000;rounded=0;" edge="1" parent="1" source="Of8QYfmjTecz0_pd859t-58">
          <mxGeometry relative="1" as="geometry">
            <mxPoint x="560" y="480" as="targetPoint" />
            <mxPoint x="530" y="440" as="sourcePoint" />
            <Array as="points">
              <mxPoint x="560" y="480" />
            </Array>
          </mxGeometry>
        </mxCell>
        <mxCell id="Of8QYfmjTecz0_pd859t-62" value="Search for new commenst" style="rounded=1;whiteSpace=wrap;html=1;arcSize=40;fontColor=#000000;fillColor=#ffffc0;strokeColor=#ff0000;" vertex="1" parent="1">
          <mxGeometry x="330" y="490" width="120" height="40" as="geometry" />
        </mxCell>
        <mxCell id="Of8QYfmjTecz0_pd859t-63" value="" style="edgeStyle=orthogonalEdgeStyle;html=1;verticalAlign=bottom;endArrow=open;endSize=8;strokeColor=#ff0000;rounded=0;" edge="1" source="Of8QYfmjTecz0_pd859t-62" parent="1">
          <mxGeometry relative="1" as="geometry">
            <mxPoint x="390" y="560" as="targetPoint" />
            <Array as="points">
              <mxPoint x="390" y="560" />
              <mxPoint x="390" y="560" />
            </Array>
          </mxGeometry>
        </mxCell>
        <mxCell id="Of8QYfmjTecz0_pd859t-66" value="Adding new items to database" style="rounded=1;whiteSpace=wrap;html=1;arcSize=40;fontColor=#000000;fillColor=#ffffc0;strokeColor=#ff0000;" vertex="1" parent="1">
          <mxGeometry x="510" y="490" width="120" height="40" as="geometry" />
        </mxCell>
        <mxCell id="Of8QYfmjTecz0_pd859t-67" value="" style="edgeStyle=orthogonalEdgeStyle;html=1;verticalAlign=bottom;endArrow=open;endSize=8;strokeColor=#ff0000;rounded=0;" edge="1" source="Of8QYfmjTecz0_pd859t-66" parent="1">
          <mxGeometry relative="1" as="geometry">
            <mxPoint x="520" y="660" as="targetPoint" />
            <Array as="points">
              <mxPoint x="570" y="630" />
              <mxPoint x="520" y="630" />
            </Array>
          </mxGeometry>
        </mxCell>
        <mxCell id="Of8QYfmjTecz0_pd859t-68" value="Answer the commenter&#39;s question" style="rounded=1;whiteSpace=wrap;html=1;arcSize=40;fontColor=#000000;fillColor=#ffffc0;strokeColor=#ff0000;" vertex="1" parent="1">
          <mxGeometry x="330" y="570" width="120" height="40" as="geometry" />
        </mxCell>
        <mxCell id="Of8QYfmjTecz0_pd859t-69" value="" style="edgeStyle=orthogonalEdgeStyle;html=1;verticalAlign=bottom;endArrow=open;endSize=8;strokeColor=#ff0000;rounded=0;" edge="1" source="Of8QYfmjTecz0_pd859t-68" parent="1">
          <mxGeometry relative="1" as="geometry">
            <mxPoint x="440" y="660" as="targetPoint" />
            <Array as="points">
              <mxPoint x="390" y="630" />
              <mxPoint x="440" y="630" />
            </Array>
          </mxGeometry>
        </mxCell>
        <mxCell id="Of8QYfmjTecz0_pd859t-70" value="" style="shape=line;html=1;strokeWidth=6;strokeColor=#ff0000;" vertex="1" parent="1">
          <mxGeometry x="340" y="670" width="260" height="10" as="geometry" />
        </mxCell>
        <mxCell id="Of8QYfmjTecz0_pd859t-71" value="" style="edgeStyle=orthogonalEdgeStyle;html=1;verticalAlign=bottom;endArrow=open;endSize=8;strokeColor=#ff0000;rounded=0;" edge="1" source="Of8QYfmjTecz0_pd859t-70" parent="1">
          <mxGeometry relative="1" as="geometry">
            <mxPoint x="480" y="730" as="targetPoint" />
            <Array as="points">
              <mxPoint x="480" y="730" />
              <mxPoint x="480" y="730" />
            </Array>
          </mxGeometry>
        </mxCell>
        <mxCell id="Of8QYfmjTecz0_pd859t-73" value="Update &amp;amp; user can see new games, films, music" style="rounded=1;whiteSpace=wrap;html=1;arcSize=40;fontColor=#000000;fillColor=#ffffc0;strokeColor=#ff0000;" vertex="1" parent="1">
          <mxGeometry x="420" y="740" width="120" height="40" as="geometry" />
        </mxCell>
        <mxCell id="Of8QYfmjTecz0_pd859t-74" value="" style="edgeStyle=orthogonalEdgeStyle;html=1;verticalAlign=bottom;endArrow=open;endSize=8;strokeColor=#ff0000;rounded=0;" edge="1" source="Of8QYfmjTecz0_pd859t-73" parent="1">
          <mxGeometry relative="1" as="geometry">
            <mxPoint x="480" y="840" as="targetPoint" />
            <Array as="points">
              <mxPoint x="480" y="820" />
              <mxPoint x="480" y="820" />
            </Array>
          </mxGeometry>
        </mxCell>
        <mxCell id="Of8QYfmjTecz0_pd859t-75" value="" style="ellipse;html=1;shape=endState;fillColor=#000000;strokeColor=#ff0000;" vertex="1" parent="1">
          <mxGeometry x="465" y="850" width="30" height="30" as="geometry" />
        </mxCell>
      </root>
    </mxGraphModel>
  </diagram>
</mxfile>
